<?xml version="1.0" encoding="UTF-8" standalone="no"?>
<svg
   xmlns:dc="http://purl.org/dc/elements/1.1/"
   xmlns:cc="http://creativecommons.org/ns#"
   xmlns:rdf="http://www.w3.org/1999/02/22-rdf-syntax-ns#"
   xmlns:svg="http://www.w3.org/2000/svg"
   xmlns="http://www.w3.org/2000/svg"
   xmlns:sodipodi="http://sodipodi.sourceforge.net/DTD/sodipodi-0.dtd"
   xmlns:inkscape="http://www.inkscape.org/namespaces/inkscape"
   version="1.1"
   height="22"
   viewBox="0 0 21.999999 21.999999"
   width="22"
   id="svg11"
   sodipodi:docname="balcony-black.svg"
   inkscape:version="0.92.3 (2405546, 2018-03-11)">
  <metadata
     id="metadata15">
    <rdf:RDF>
      <cc:Work
         rdf:about="">
        <dc:format>image/svg+xml</dc:format>
        <dc:type
           rdf:resource="http://purl.org/dc/dcmitype/StillImage" />
      </cc:Work>
    </rdf:RDF>
  </metadata>
  <sodipodi:namedview
     pagecolor="#ffffff"
     bordercolor="#666666"
     borderopacity="1"
     objecttolerance="10"
     gridtolerance="10"
     guidetolerance="10"
     inkscape:pageopacity="0"
     inkscape:pageshadow="2"
     inkscape:window-width="875"
     inkscape:window-height="480"
     id="namedview13"
     showgrid="false"
     inkscape:zoom="10.727273"
     inkscape:cx="11"
     inkscape:cy="18.457627"
     inkscape:window-x="0"
     inkscape:window-y="0"
     inkscape:window-maximized="0"
     inkscape:current-layer="svg11" />
  <defs
     id="defs3">
    <style
       id="current-color-scheme"
       type="text/css">.ColorScheme-Text {
        color:#000000;
      }</style>
  </defs>
  <g
     transform="matrix(0.03690865,0,0,0.03632558,1.1883378,1.9798576)"
     id="g8">
    <path style="color:#000000;fill:#000000" class="ColorScheme-Text"
       d="M 472,280 H 456 136.084 c -0.016,0 -0.032,0 -0.048,0 H 56 40 c -13.234,0 -24,10.767 -24,24 0,4.418 3.582,8 8,8 4.418,0 8,-3.582 8,-8 0,-4.411 3.589,-8 8,-8 h 6.556 L 27.983,407.443 c -2.81,16.864 0.486,34.225 9.282,48.884 L 48,474.216 V 503 c 0,4.963 4.038,9 9,9 h 398 c 4.962,0 9,-4.037 9,-9 v -28.784 l 10.735,-17.889 c 8.796,-14.659 12.092,-32.02 9.282,-48.884 L 465.444,296 H 472 c 4.411,0 8,3.589 8,8 0,4.418 3.582,8 8,8 4.418,0 8,-3.582 8,-8 0,-13.233 -10.766,-24 -24,-24 z M 421.015,448.095 411.471,464 h -23.654 l 5.652,-14.13 c 4.385,-10.962 6.014,-22.959 4.71,-34.694 L 384.938,296 h 24.285 l 19.012,114.074 c 2.185,13.116 -0.379,26.619 -7.22,38.021 z M 346.603,464 l 5.335,-18.69 c 2.368,-8.292 3.223,-16.856 2.541,-25.456 L 344.659,296 h 24.18 l 13.438,120.943 c 1.014,9.127 -0.252,18.458 -3.664,26.983 L 370.584,464 Z m -42.14,0 1.646,-29.252 c 0.096,-1.711 0.131,-3.449 0.104,-5.168 L 304.126,296 h 24.483 l 9.92,125.119 c 0.53,6.688 -0.134,13.349 -1.976,19.798 L 329.964,464 Z M 264,464 V 296 h 24.124 l 2.091,133.83 c 0.021,1.337 -0.006,2.69 -0.081,4.021 L 288.438,464 Z m -40.485,0 -1.872,-29.944 c -0.092,-1.484 -0.126,-2.986 -0.1,-4.467 L 223.863,296 H 248 v 168 z m -122.986,0 -9.544,-15.905 C 84.144,436.694 81.58,423.191 83.765,410.074 L 102.777,296 h 24.285 L 113.82,415.176 c -1.304,11.735 0.325,23.732 4.71,34.694 l 5.652,14.13 z m 40.887,0 -8.03,-20.073 c -3.411,-8.525 -4.678,-17.856 -3.664,-26.983 L 143.161,296 h 24.175 l -9.884,123.77 c -0.691,8.658 0.175,17.28 2.575,25.627 L 165.376,464 Z m 40.608,0 -6.62,-23.025 c -1.867,-6.491 -2.541,-13.197 -2.003,-19.932 L 183.387,296 h 24.473 l -2.314,133.311 c -0.034,1.902 0.01,3.834 0.129,5.742 L 207.485,464 Z M 43.765,410.074 62.777,296 h 23.78 L 67.983,407.443 c -2.81,16.864 0.486,34.225 9.282,48.884 L 81.869,464 H 60.529 L 50.985,448.095 C 44.144,436.693 41.58,423.19 43.765,410.074 Z M 448,496 H 64 v -16 h 31.992 c 0.005,0 0.01,10e-4 0.015,10e-4 0.005,0 0.01,-10e-4 0.015,-10e-4 h 39.954 c 0.009,0 0.017,0.002 0.026,0.002 0.014,0 0.028,-0.002 0.042,-0.002 h 39.928 c 0.008,0 0.016,0.002 0.024,0.002 0.009,0 0.019,-0.002 0.028,-0.002 h 159.952 c 0.009,0 0.019,0.002 0.028,0.002 0.008,0 0.016,-0.002 0.024,-0.002 h 39.928 c 0.014,0 0.028,0.002 0.042,0.002 0.009,0 0.017,-0.002 0.026,-0.002 h 39.954 c 0.005,0 0.01,10e-4 0.015,10e-4 0.005,0 0.01,-10e-4 0.015,-10e-4 H 448 Z M 461.015,448.095 451.471,464 h -21.34 l 4.604,-7.673 c 8.796,-14.659 12.092,-32.02 9.282,-48.884 L 425.444,296 h 23.779 l 19.012,114.074 c 2.185,13.116 -0.379,26.619 -7.22,38.021 z"
       id="path2"
       inkscape:connector-curvature="0" />
    <path style="color:#000000;fill:#000000" class="ColorScheme-Text"
       inkscape:connector-curvature="0"
       d="m 103.06514,287.42963 c 4.418,0 7.66722,-6.74822 7.68838,-11.16616 L 112,16 h 288 l 1.32209,269.10463 c 0.0217,4.41795 3.1413,-3.64185 7.5593,-3.64185 4.418,0 7.11861,4.02998 7.11861,-0.38802 V 16 C 416,7.178 408.822,0 400,0 H 112 C 103.178,0 95.989589,7.1780063 96,16 l 0.31162,264.06287 c 0.0052,4.41799 2.33552,7.36676 6.75352,7.36676 z"
       id="path6" />
    <path style="color:#000000;fill:#000000" class="ColorScheme-Text"
       inkscape:connector-curvature="0"
       d="m 376,264 c 4.418,0 8,-3.582 8,-8 V 40 c 0,-4.418 -3.582,-8 -8,-8 H 136 c -4.418,0 -8,3.582 -8,8 v 216 c 0,4.418 3.582,8 8,8 4.418,0 8,-3.582 8,-8 V 136 h 79.999 c 4.418,0 120.81849,-5.37305 120.81849,-9.79105 C 344.81749,121.79095 228.417,120 223.999,120 H 144 V 48 h 104 v 208 c 0,4.418 3.582,8 8,8 4.418,0 8,-3.582 8,-8 V 136 h 104 v 120 c 0,4.418 3.582,8 8,8 z M 264,120 V 48 h 104 v 72 z"
       id="path8" />
  </g>
</svg>
