<?xml version="1.0" encoding="UTF-8" standalone="no"?>
<svg
   xmlns:dc="http://purl.org/dc/elements/1.1/"
   xmlns:cc="http://creativecommons.org/ns#"
   xmlns:rdf="http://www.w3.org/1999/02/22-rdf-syntax-ns#"
   xmlns:svg="http://www.w3.org/2000/svg"
   xmlns="http://www.w3.org/2000/svg"
   xmlns:sodipodi="http://sodipodi.sourceforge.net/DTD/sodipodi-0.dtd"
   xmlns:inkscape="http://www.inkscape.org/namespaces/inkscape"
   version="1.1"
   height="22"
   viewBox="0 0 21.999999 21.999999"
   width="22"
   id="svg8"
   sodipodi:docname="barbecue-black.svg"
   inkscape:version="0.92.3 (2405546, 2018-03-11)">
  <metadata
     id="metadata12">
    <rdf:RDF>
      <cc:Work
         rdf:about="">
        <dc:format>image/svg+xml</dc:format>
        <dc:type
           rdf:resource="http://purl.org/dc/dcmitype/StillImage" />
      </cc:Work>
    </rdf:RDF>
  </metadata>
  <sodipodi:namedview
     pagecolor="#ffffff"
     bordercolor="#666666"
     borderopacity="1"
     objecttolerance="10"
     gridtolerance="10"
     guidetolerance="10"
     inkscape:pageopacity="0"
     inkscape:pageshadow="2"
     inkscape:window-width="875"
     inkscape:window-height="480"
     id="namedview10"
     showgrid="false"
     inkscape:zoom="10.727273"
     inkscape:cx="10.229085"
     inkscape:cy="11"
     inkscape:window-x="0"
     inkscape:window-y="0"
     inkscape:window-maximized="0"
     inkscape:current-layer="svg8" />
  <defs
     id="defs3">
    <style
       id="current-color-scheme"
       type="text/css">.ColorScheme-Text {
        color:#87cefa;
      }</style>
  </defs>
  <path style="color:#87cefa;fill:#87cefa" class="ColorScheme-Text"
     d="m 19.381485,8.6408232 h -1.44153 c 0.04541,-0.311977 0.07496,-0.6296072 0.08758,-0.9522058 0.453932,-0.1764614 0.780566,-0.6575325 0.780566,-1.2222087 0,-0.7137264 -0.521814,-1.2945077 -1.16323,-1.2945077 H 3.6451746 c -0.6414156,0 -1.1630759,0.5807813 -1.1630759,1.2945077 0,0.5646762 0.3264802,1.0457473 0.7804129,1.2222087 0.012773,0.3225986 0.042333,0.6402288 0.087582,0.9520338 H 1.9085635 c -0.2176532,0 -0.3940541,0.1965071 -0.3940541,0.4385851 0,0.242248 0.1764009,0.438583 0.3940541,0.438583 H 3.5224928 C 4.0653949,11.69686 5.3954821,13.515095 7.1491762,14.567526 L 6.216838,16.51511 c -5.982e-4,0.0012 -0.0011,0.0023 -0.00166,0.0034 L 4.4738006,20.15602 H 3.874253 c -0.2176541,0 -0.3940542,0.196504 -0.3940542,0.438583 0,0.242248 0.1764001,0.438583 0.3940542,0.438583 h 1.6721136 c 0.2176532,0 0.3940541,-0.196335 0.3940541,-0.438583 0,-0.242079 -0.1764009,-0.438583 -0.3940541,-0.438583 H 5.3667327 l 1.4324494,-2.991792 h 7.7856489 l 1.432295,2.991792 H 15.74375 c -0.217499,0 -0.394054,0.196504 -0.394054,0.438583 0,0.242248 0.176555,0.438583 0.394054,0.438583 h 1.672114 c 0.217654,0 0.394054,-0.196335 0.394054,-0.438583 0,-0.242079 -0.1764,-0.438583 -0.394054,-0.438583 h -0.505652 l -1.741688,-3.637674 c -4.73e-4,-9.5e-4 -9.2e-4,-0.0021 -0.0014,-0.0031 l -0.953733,-1.991957 c 1.717829,-1.05877 3.018824,-2.856619 3.554184,-5.0053357 h 1.613928 c 0.2175,0 0.394054,-0.196505 0.394054,-0.438583 0,-0.242249 -0.176401,-0.4385831 -0.394054,-0.4385831 z M 7.2190637,16.287083 7.8627882,14.942206 c 0.8593771,0.390099 1.7984891,0.605621 2.7822398,0.605621 1.013149,0 1.979198,-0.2282 2.859201,-0.640741 l 0.660656,1.379997 z m 3.4259643,-1.616422 c -3.5081614,0 -6.3861418,-3.061005 -6.5905577,-6.9095744 H 17.235583 C 17.031167,11.609656 14.153341,14.670661 10.645028,14.670661 Z M 17.644876,6.8839192 H 3.6451773 c -0.2067249,0 -0.3749667,-0.1872544 -0.3749667,-0.4175105 0,-0.2300866 0.1682418,-0.4173402 0.3749667,-0.4173402 H 17.644876 c 0.206879,0 0.375121,0.1872536 0.375121,0.4173402 0,0.2302561 -0.168242,0.4175105 -0.375121,0.4175105 z m 0,0"
     id="path8"
     inkscape:connector-curvature="0" />
  <path style="color:#87cefa;fill:#87cefa" class="ColorScheme-Text"
     d="M 7.8367407,2.0326758 C 8.2103404,1.8848872 8.7221443,1.6824862 8.7221443,1.2701797 c 0,-0.1473711 -0.2043651,-0.2668107 -0.4565216,-0.2668107 -0.2521576,0 -0.4565226,0.1194396 -0.4565226,0.2668107 0,0.11746 -0.1399885,0.1844753 -0.4839856,0.3204863 -0.3737778,0.1477885 -0.885582,0.3501895 -0.885582,0.7626005 0,0.4124102 0.5118042,0.6147077 0.885582,0.7624962 0.3439971,0.136011 0.4839856,0.2030263 0.4839856,0.3204856 0,0.1174592 -0.1399885,0.1844745 -0.4839856,0.3204863 -0.3737778,0.1477878 -0.885582,0.3500852 -0.885582,0.7624954 0,0.1472676 0.2045431,0.2668115 0.4565226,0.2668115 0.252157,0 0.4565224,-0.1195439 0.4565224,-0.2668115 0,-0.1174593 0.1401666,-0.1844746 0.4841632,-0.3204856 C 8.2103404,4.0509559 8.7221443,3.8486593 8.7221443,3.4362483 8.7221443,3.0238372 8.2105187,2.8215406 7.8367407,2.6737521 7.4927441,2.5377411 7.3525775,2.4707258 7.3525775,2.3531622 c 0,-0.1174601 0.1401666,-0.1844754 0.4841632,-0.3204864 z m 0,0"
     id="path2"
     inkscape:connector-curvature="0" />
  <path style="color:#87cefa;fill:#87cefa" class="ColorScheme-Text"
     d="m 14.662681,2.0902361 c 0.3736,-0.145802 0.885404,-0.3454822 0.885404,-0.7522465 0,-0.1453901 -0.204365,-0.2632241 -0.456522,-0.2632241 -0.252157,0 -0.456523,0.117834 -0.456523,0.2632241 0,0.1158811 -0.139988,0.1819956 -0.483985,0.3161783 -0.373778,0.1458019 -0.885582,0.3454822 -0.885582,0.7523495 0,0.4068665 0.511804,0.6064446 0.885582,0.7522465 0.343997,0.1341827 0.483985,0.2002972 0.483985,0.3161776 0,0.1158803 -0.139988,0.1819948 -0.483985,0.3161783 -0.373778,0.1458011 -0.885582,0.3453793 -0.885582,0.7522457 0,0.145288 0.204543,0.263225 0.456522,0.263225 0.252158,0 0.456523,-0.117937 0.456523,-0.263225 0,-0.1158803 0.140167,-0.1819948 0.484163,-0.3161775 0.3736,-0.1458019 0.885404,-0.3453792 0.885404,-0.7522465 0,-0.4068673 -0.511626,-0.6064447 -0.885404,-0.7522466 -0.343996,-0.1341827 -0.484163,-0.2002972 -0.484163,-0.3162805 0,-0.1158811 0.140167,-0.1819956 0.484163,-0.3161783 z m 0,0"
     id="path2-3"
     inkscape:connector-curvature="0" />
</svg>
