<?xml version="1.0" encoding="UTF-8" standalone="no"?>
<svg xmlns="http://www.w3.org/2000/svg" version="1.1" xmlns:cc="http://creativecommons.org/ns#" xmlns:dc="http://purl.org/dc/elements/1.1/" height="22" viewBox="0 0 21.999999 21.999999" width="22" xmlns:rdf="http://www.w3.org/1999/02/22-rdf-syntax-ns#">
<defs>
<style id="current-color-scheme" type="text/css">.ColorScheme-Text {
        color:#006400;
      }</style>
</defs>
<g transform="translate(-0.46610164,-1028.0424)">
<g transform="matrix(0.422,0,0,0.422,228,597)">
<g transform="translate(-2.37,2.37)">
<path
           style="color:#000000;isolation:auto;mix-blend-mode:normal;solid-color:#000000;fill:#006400;color-rendering:auto;image-rendering:auto;shape-rendering:auto;text-rendering:auto"
           d="M 5.57,3 C 4.85,3.03 3.96,3.7 4,4.5 l 0,6.5 -1,0 1.66,5 c 0.25,0.6 0.86,1 1.34,1 l 1,0 0,1 1,0 0,-1 3,0 3,0 0,1 1,0 0,-1 1,0 c 0.5,0 1.2,-0.6 1.3,-1 L 19,11 5,11 5,4.91 C 5,4.33 5.27,4.12 5.56,4.11 6.16,4.09 6.53,4.75 6.53,4.75 L 6.02,5.26 6.72,5.97 7.47,5.22 8.72,3.97 8.02,3.26 7.27,4.01 C 7.27,4.01 6.5,2.97 5.57,3 Z m 3.39,1.69 -0.6,0.8 0.8,0.6 0.6,-0.8 -0.8,-0.6 z m -0.9,1.1 -0.8,0.6 0.6,0.8 0.8,-0.6 -0.6,-0.8 z m 2.54,0.1 -0.64,0.8 0.84,0.6 0.6,-0.8 -0.8,-0.6 z m 1.6,1.2 -0.6,0.8 0.8,0.6 0.6,-0.8 -0.8,-0.6 z m -2.94,0.3 -0.8,0.6 0.6,0.8 0.8,-0.6 -0.6,-0.8 z m 1.24,1.6 -0.84,0.6 0.64,0.81 0.8,-0.61 -0.6,-0.8 z M 4.75,12 l 12.6,0 -0.9,3 c -0.2,1 -0.5,1 -1.5,1 l -4,0 -4,0 C 5.9,16.1 5.91,15.9 5.57,15 L 4.7,12 Z"
           transform="matrix(2.37,0,0,2.37,-537,1020)"
           id="path13"
           />
</g>
</g>
</g>
</svg>
