<?xml version="1.0" encoding="UTF-8" standalone="no"?>
<svg xmlns="http://www.w3.org/2000/svg" version="1.1" xmlns:cc="http://creativecommons.org/ns#" xmlns:dc="http://purl.org/dc/elements/1.1/" height="22" viewBox="0 0 21.999999 21.999999" width="22" xmlns:rdf="http://www.w3.org/1999/02/22-rdf-syntax-ns#">
<defs>
<style id="current-color-scheme" type="text/css">.ColorScheme-Text {
        color:#0000ff;
      }</style>
</defs>
  <g
     transform="translate(0,-1028.4153)"
     id="g7">
    <g
       transform="matrix(0.422,0,0,0.422,228,597)"
       id="g9">
      <g
         transform="translate(-2.37,2.37)"
         id="g11">
        <path
           style="color:#000000;isolation:auto;mix-blend-mode:normal;solid-color:#000000;fill:#0000ff;color-rendering:auto;image-rendering:auto;shape-rendering:auto;text-rendering:auto"
           d="m -527,1040 0,4.74 -2.37,0 0,11.8 4.74,0 0,2.37 4.74,0 0,-2.37 19,0 0,2.37 4.74,0 0,-2.37 4.74,0 0,-11.8 -2.37,0 0,-4.74 c 0,-2.37 -2.37,-4.74 -4.74,-4.74 l -23.7,0 c -2.37,0 -4.74,2.37 -4.74,4.74 z m 4.74,-2.37 23.7,0 c 1.16,-0.012 2.37,1.14 2.37,2.37 l 0,4.74 -2.37,0 0,-2.37 -9.48,0 0,2.37 -2.37,0 -2.37,0 0,-2.37 -9.48,0 0,2.37 -2.37,0 0,-4.74 c 10e-4,-1.24 1.2,-2.37 2.37,-2.37 z m -4.74,9.48 2.37,0 2.37,0 23.7,0 2.37,0 2.37,0 0,7.11 -33.2,0 z"
           id="path13"
            />
      </g>
    </g>
  </g>
</svg>
