<?xml version="1.0" encoding="UTF-8" standalone="no"?>
<svg xmlns="http://www.w3.org/2000/svg" version="1.1" xmlns:cc="http://creativecommons.org/ns#" xmlns:dc="http://purl.org/dc/elements/1.1/" height="22" viewBox="0 0 21.999999 21.999999" width="22" xmlns:rdf="http://www.w3.org/1999/02/22-rdf-syntax-ns#">
<defs>
<style id="current-color-scheme" type="text/css">.ColorScheme-Text {
        color:#ffffff;
      }</style>
</defs>
<g transform="translate(0 -1.03e3)">
<g transform="matrix(.422 0 0 .422 228 597)">
<g transform="translate(-2.37 2.37)">
<path style="text-rendering:auto;color-rendering:auto;color:#000000;isolation:auto;mix-blend-mode:normal;shape-rendering:auto;solid-color:#000000;image-rendering:auto" d="m11 2c-3.09 0-5.6 1.57-5.6 4.67 0 0.79 0.4 1.58 0.73 2.3l0.01 0.03c1.59 2.8 2.25 4 2.58 6h2.28 2.3c0.3-2 1-3.2 2.6-6v-0.03c0.3-0.72 0.7-1.51 0.7-2.3 0-3.1-2.5-4.67-5.6-4.67zm0 1c2.6 0 4.6 1.33 4.6 3.95 0 0.6-0.5 1.34-0.7 1.95v0.02c-1.4 2.38-2.1 4.08-2.3 5.08h-1.6-1.5c-0.3-1-1.02-2.7-2.36-5.08l-0.01-0.02c-0.28-0.61-0.75-1.42-0.75-1.95 0-2.62 2-3.95 4.62-3.95zm-2 13l-0.02 1h4.02v-1h-4zm0 2l-0.02 1h4.02v-1h-4z" transform="matrix(2.37 0 0 2.37 -537 1.02e3)" fill="#ffffff"/>
</g>
</g>
</g>
</svg>
