<?xml version="1.0" encoding="UTF-8" standalone="no"?>
<svg xmlns="http://www.w3.org/2000/svg" version="1.1" xmlns:cc="http://creativecommons.org/ns#" xmlns:dc="http://purl.org/dc/elements/1.1/" height="22" viewBox="0 0 21.999999 21.999999" width="22" xmlns:rdf="http://www.w3.org/1999/02/22-rdf-syntax-ns#">
<defs>
<style id="current-color-scheme" type="text/css">.ColorScheme-Text {
        color:#9400d3;
      }</style>
</defs>
  <g transform="translate(0,-1029.3475)">
    <path
       style="color:#000000;isolation:auto;mix-blend-mode:normal;solid-color:#000000;fill:#9400d3;color-rendering:auto;image-rendering:auto;shape-rendering:auto;text-rendering:auto"
       d="m 4,4 0,12 -1,0 0,1 16,0 0,-1 -1,0 L 18,4 4,4 Z m 1,1 12,0 0,11 -1,0 0,-1 0,-4 -1,0 -1,-3 -6,0 -1,3 -1,0 0,4 0,1 -1,0 0,-11 z m 3.77,4 4.43,0 0.7,2 -5.83,0 0.7,-2 z M 7,12 l 2,0 0,1 -2,0 0,-1 z m 6,0 2,0 0,1 -2,0 0,-1 z m -5,3 6,0 0,1 -6,0 0,-1 z"
       transform="translate(0,1030)"
       id="path9"
        />
  </g>
</svg>
