<?xml version="1.0" encoding="UTF-8" standalone="no"?>
<svg
   xmlns:dc="http://purl.org/dc/elements/1.1/"
   xmlns:cc="http://creativecommons.org/ns#"
   xmlns:rdf="http://www.w3.org/1999/02/22-rdf-syntax-ns#"
   xmlns:svg="http://www.w3.org/2000/svg"
   xmlns="http://www.w3.org/2000/svg"
   xmlns:sodipodi="http://sodipodi.sourceforge.net/DTD/sodipodi-0.dtd"
   xmlns:inkscape="http://www.inkscape.org/namespaces/inkscape"
   version="1.1"
   height="22"
   viewBox="0 0 21.999999 21.999999"
   width="22"
   id="svg7"
   sodipodi:docname="computer-black.svg"
   inkscape:version="0.92.3 (2405546, 2018-03-11)">
  <metadata
     id="metadata11">
    <rdf:RDF>
      <cc:Work
         rdf:about="">
        <dc:format>image/svg+xml</dc:format>
        <dc:type
           rdf:resource="http://purl.org/dc/dcmitype/StillImage" />
      </cc:Work>
    </rdf:RDF>
  </metadata>
  <sodipodi:namedview
     pagecolor="#ffffff"
     bordercolor="#666666"
     borderopacity="1"
     objecttolerance="10"
     gridtolerance="10"
     guidetolerance="10"
     inkscape:pageopacity="0"
     inkscape:pageshadow="2"
     inkscape:window-width="1366"
     inkscape:window-height="708"
     id="namedview9"
     showgrid="false"
     inkscape:zoom="7.5853273"
     inkscape:cx="6.319317"
     inkscape:cy="8.7989491"
     inkscape:window-x="0"
     inkscape:window-y="0"
     inkscape:window-maximized="1"
     inkscape:current-layer="svg7" />
  <defs
     id="defs3">
    <style
       id="current-color-scheme"
       type="text/css">.ColorScheme-Text {
        color:#00ff00;
      }</style>
  </defs>
  <path
     style="fill:#00ff00;fill-opacity:1;stroke:none"
     d="m 13.337678,2.2668208 v 1 1 c 0,0.554 -0.446,1 -1,1 -1.107999,0 -2,0.892 -2,2 H 2.3376782 V 18.266822 H 20.337678 V 7.2668208 h -8.999999 c 0,-0.554 0.446,-1 0.999999,-1 1.108,0 2,-0.892 2,-2 v -1 -1 z m -9.9999998,6 h 6.9999998 1.000001 7.999999 V 9.2668209 H 3.3376782 Z m 0,2.0000002 H 19.337678 v 7.000001 h -4 -7.9999999 -3.9999999 z m 0.9999999,1.000001 v 1 h 2 v -1 z m 3,0 v 1 h 2 v -1 z m 2.9999999,0 v 1 h 2 v -1 z m 3,0 v 1 h 2 v -1 z m 3,0 v 1 h 2 v -1 z m -11.9999999,2 v 1 h 2 v -1 z m 3,0 v 1 h 2 v -1 z m 2.9999999,0 v 1 h 2 v -1 z m 3,0 v 1 h 2 v -1 z m 3,0 v 1 h 2 v -1 z m -11.9999999,2 v 1 h 2 v -1 z m 3,0 v 1 h 7.9999999 v -1 z m 8.9999999,0 v 1 h 2 v -1 z"
     id="path5"
     inkscape:connector-curvature="0" />
</svg>
