<?xml version="1.0" encoding="UTF-8" standalone="no"?>
<svg xmlns="http://www.w3.org/2000/svg" version="1.1" xmlns:cc="http://creativecommons.org/ns#" xmlns:dc="http://purl.org/dc/elements/1.1/" height="22" viewBox="0 0 21.999999 21.999999" width="22" xmlns:rdf="http://www.w3.org/1999/02/22-rdf-syntax-ns#">
<defs>
<style id="current-color-scheme" type="text/css">.ColorScheme-Text {
        color:#4d4d4d;
      }</style>
</defs>
  <g
     transform="translate(-0.46610164,-1031.5847)"
     id="g7">
    <g
       transform="matrix(0.422,0,0,0.422,228,597)"
       id="g9">
      <g
         transform="translate(-2.37,2.37)"
         id="g11">
        <path
           style="color:#000000;isolation:auto;mix-blend-mode:normal;solid-color:#000000;fill:#4d4d4d;color-rendering:auto;image-rendering:auto;shape-rendering:auto;text-rendering:auto"
           d="m -530,1040 0,7.11 2.37,0 0,21.3 2.37,0 0,-21.3 2.37,0 0,-7.11 -2.37,0 0,4.74 -2.37,0 0,-4.74 -2.37,0 z m 33.2,0 0,28.4 2.37,0 0,-28.4 -2.37,0 z m -14.2,2.37 a 11.8,11.8 0 0 0 -11.9,11.8 11.8,11.8 0 0 0 11.7,11.9 11.8,11.8 0 0 0 12,-11.7 l 0,-0.176 a 11.8,11.8 0 0 0 -11.8,-11.8 z m -0.005,2.37 a 9.48,9.48 0 0 1 9.44,9.48 l 0,0.139 a 9.48,9.48 0 0 1 -9.58,9.34 9.48,9.48 0 0 1 -9.37,-9.55 9.48,9.48 0 0 1 9.51,-9.41 z"
           id="path13"
            />
      </g>
    </g>
  </g>
</svg>
