<?xml version="1.0" encoding="UTF-8" standalone="no"?>
<svg xmlns="http://www.w3.org/2000/svg" version="1.1" xmlns:cc="http://creativecommons.org/ns#" xmlns:dc="http://purl.org/dc/elements/1.1/" height="22" viewBox="0 0 21.999999 21.999999" width="22" xmlns:rdf="http://www.w3.org/1999/02/22-rdf-syntax-ns#">
<defs>
<style id="current-color-scheme" type="text/css">.ColorScheme-Text {
        color:#f08080;
      }</style>
</defs>
<g transform="translate(0 -1.03e3)">
<g transform="matrix(.422 0 0 .422 228 597)">
<g transform="translate(-2.37 2.37)">
<path style="text-rendering:auto;color-rendering:auto;color:#000000;isolation:auto;mix-blend-mode:normal;shape-rendering:auto;solid-color:#000000;image-rendering:auto" d="m-530 1.04e3v7.11h2.37v21.3h2.37v-21.3h2.37v-7.11h-2.37v4.74h-2.37v-4.74h-2.37zm33.2 0v28.4h2.37v-28.4h-2.37zm-14.2 2.37a11.8 11.8 0 0 0 -11.9 11.8 11.8 11.8 0 0 0 11.7 11.9 11.8 11.8 0 0 0 12 -11.7v-0.176a11.8 11.8 0 0 0 -11.8 -11.8zm-0.005 2.37a9.48 9.48 0 0 1 9.44 9.48v0.139a9.48 9.48 0 0 1 -9.58 9.34 9.48 9.48 0 0 1 -9.37 -9.55 9.48 9.48 0 0 1 9.51 -9.41z" fill="#f08080"/>
</g>
</g>
</g>
</svg>
