<?xml version="1.0" encoding="UTF-8" standalone="no"?>
<svg xmlns="http://www.w3.org/2000/svg" version="1.1" xmlns:cc="http://creativecommons.org/ns#" xmlns:dc="http://purl.org/dc/elements/1.1/" height="22" viewBox="0 0 21.999999 21.999999" width="22" xmlns:rdf="http://www.w3.org/1999/02/22-rdf-syntax-ns#" xmlns:xlink="http://www.w3.org/1999/xlink">
<defs>
<linearGradient id="b">
<stop stop-color="#ff13f4" offset="0"/>
<stop stop-color="#005ce0" offset=".230"/>
<stop stop-color="#1cfc00" offset=".439"/>
<stop stop-color="#fcfc08" offset=".645"/>
<stop stop-color="#fc0c0c" offset="1"/>
</linearGradient>
<style id="current-color-scheme" type="text/css">.ColorScheme-Text {
        color:#4d4d4d;
      }</style>
<linearGradient id="a" x1="11" gradientUnits="userSpaceOnUse" x2="11" xlink:href="#b" y1="19" y2="2.05"/>
</defs>
  <g
     transform="translate(0,-1029.3475)"
     id="g7">
    <g
       transform="matrix(0.422,0,0,0.422,228,597)"
       id="g9">
      <g
         transform="matrix(1.36,0,0,1.36,183,-375)"
         id="g11">
        <path
           style="color:#000000;isolation:auto;mix-blend-mode:normal;solid-color:#000000;fill:#4d4d4d;color-rendering:auto;image-rendering:auto;shape-rendering:auto;text-rendering:auto"
           d="m 6,2 0,16 -2,0 0,1 14,0 0,-1 -2,0 L 16,2 6,2 Z m 1,1 8,0 0,15 -8,0 0,-15 z m 1,1 0,5 6,0 0,-5 -6,0 z m 5,6 0,1 1,0 0,-1 -1,0 z m -5,2 0,5 6,0 0,-5 -6,0 z m 1,1 4,0 0,3 -4,0 0,-3 z"
           transform="matrix(1.75,0,0,1.75,-532,1030)"
           id="path13" fill="url(#a)"/>
</g>
</g>
</g>
</svg>
