<?xml version="1.0" encoding="UTF-8" standalone="no"?>
<svg xmlns="http://www.w3.org/2000/svg" version="1.1" xmlns:cc="http://creativecommons.org/ns#" xmlns:dc="http://purl.org/dc/elements/1.1/" height="22" viewBox="0 0 21.999999 21.999999" width="22" xmlns:rdf="http://www.w3.org/1999/02/22-rdf-syntax-ns#" xmlns:xlink="http://www.w3.org/1999/xlink">
<defs>
<linearGradient id="b">
<stop stop-color="#ff13f4" offset="0"/>
<stop stop-color="#005ce0" offset=".230"/>
<stop stop-color="#1cfc00" offset=".439"/>
<stop stop-color="#fcfc08" offset=".645"/>
<stop stop-color="#fc0c0c" offset="1"/>
</linearGradient>
<style id="current-color-scheme" type="text/css">.ColorScheme-Text {
        color:#4d4d4d;
      }</style>
<linearGradient id="a" x1="11" gradientUnits="userSpaceOnUse" x2="11" xlink:href="#b" y1="19" y2="2.05"/>
</defs>
<g transform="translate(0 -1.03e3)">
<g transform="matrix(.422 0 0 .422 228 597)">
<g transform="matrix(1.36 0 0 1.36 183 -375)">
<path style="text-rendering:auto;color-rendering:auto;color:#000000;isolation:auto;mix-blend-mode:normal;shape-rendering:auto;solid-color:#000000;image-rendering:auto" d="m6 2v16h-2v1h14v-1h-2v-16h-10zm1 1h8v15h-8v-15zm1 1v5h6v-5h-6zm5 6v1h1v-1h-1zm-5 2v5h6v-5h-6zm1 1h4v3h-4v-3z" transform="matrix(1.75 0 0 1.75 -532 1.03e3)" fill="url(#a)"/>
</g>
</g>
</g>
</svg>
