<?xml version="1.0" encoding="UTF-8" standalone="no"?>
<svg
   xmlns:dc="http://purl.org/dc/elements/1.1/"
   xmlns:cc="http://creativecommons.org/ns#"
   xmlns:rdf="http://www.w3.org/1999/02/22-rdf-syntax-ns#"
   xmlns:svg="http://www.w3.org/2000/svg"
   xmlns="http://www.w3.org/2000/svg"
   xmlns:sodipodi="http://sodipodi.sourceforge.net/DTD/sodipodi-0.dtd"
   xmlns:inkscape="http://www.inkscape.org/namespaces/inkscape"
   version="1.1"
   height="22"
   viewBox="0 0 21.999999 21.999999"
   width="22"
   id="svg10"
   sodipodi:docname="garage-black.svg"
   inkscape:version="0.92.3 (2405546, 2018-03-11)">
  <metadata
     id="metadata14">
    <rdf:RDF>
      <cc:Work
         rdf:about="">
        <dc:format>image/svg+xml</dc:format>
        <dc:type
           rdf:resource="http://purl.org/dc/dcmitype/StillImage" />
      </cc:Work>
    </rdf:RDF>
  </metadata>
  <sodipodi:namedview
     pagecolor="#ffffff"
     bordercolor="#666666"
     borderopacity="1"
     objecttolerance="10"
     gridtolerance="10"
     guidetolerance="10"
     inkscape:pageopacity="0"
     inkscape:pageshadow="2"
     inkscape:window-width="875"
     inkscape:window-height="480"
     id="namedview12"
     showgrid="false"
     inkscape:zoom="10.727273"
     inkscape:cx="11"
     inkscape:cy="11"
     inkscape:window-x="0"
     inkscape:window-y="0"
     inkscape:window-maximized="0"
     inkscape:current-layer="svg10" />
  <defs
     id="defs3">
    <style
       id="current-color-scheme"
       type="text/css">.ColorScheme-Text {
        color:#8b0000;
      }</style>
  </defs>
  <path style="color:#8b0000;fill:#8b0000" class="ColorScheme-Text"
     d="m 10.788136,2.9745763 -0.7,0.71 -7.3000004,7.2899997 0.71,0.7 0.29,-0.3 v 7.6 h 1 5 3.0000004 5 v -1 -6.6 l 0.3,0.3 0.7,-0.7 -3,-2.9999997 v 0 l -3,-3 -1.3,-1.29 z m 0,1.41 6,5.9899997 v 7.6 h -4 v 0 l -1.881356,-0.01695 -2.1186444,0.01695 v 0 h -4 v -7.6 z"
     id="path5"
     inkscape:connector-curvature="0" />
  <g
     transform="translate(-6.4661017,-1041.0339)"
     id="g6">
    <path style="color:#8b0000;fill:#8b0000" class="ColorScheme-Text"
       d="m 10.254237,1059.0085 v 0 H 9.2542373 v 1 H 25.254237 v -1 h -1 v 0 z m 0.80225,0.2718 12.19775,-0.2718 v 0 h -1 v -1 -4 h -1 l -1,-3 h -6 l -1,3 h -1 v 4 1 h -1 z m 3.96775,-7.2718 h 4.43 l 0.7,2 h -5.83 z m -1.77,3 h 2 v 1 h -2 z m 6,0 h 2 v 1 h -2 z m -5,3 h 6 v 1 h -6 z"
       id="path7"
       inkscape:connector-curvature="0" />
  </g>
</svg>
