<?xml version="1.0" encoding="UTF-8" standalone="no"?>
<svg xmlns="http://www.w3.org/2000/svg" version="1.1" xmlns:cc="http://creativecommons.org/ns#" xmlns:dc="http://purl.org/dc/elements/1.1/" height="22" viewBox="0 0 21.999999 21.999999" width="22" xmlns:rdf="http://www.w3.org/1999/02/22-rdf-syntax-ns#">
<defs>
<style id="current-color-scheme" type="text/css">.ColorScheme-Text {
        color:#008000;
      }</style>
</defs>
<g transform="translate(0 -1.03e3)">
<path style="text-rendering:auto;color-rendering:auto;color:#000000;isolation:auto;mix-blend-mode:normal;shape-rendering:auto;solid-color:#000000;image-rendering:auto" d="m4 4v12h-1v1h16v-1h-1v-12h-14zm1 1h12v11h-1v-1-4h-1l-1-3h-6l-1 3h-1v4 1h-1v-11zm3.77 4h4.43l0.7 2h-5.83l0.7-2zm-1.77 3h2v1h-2v-1zm6 0h2v1h-2v-1zm-5 3h6v1h-6v-1z" transform="translate(0 1.03e3)" fill="#008000"/>
</g>
</svg>
