<?xml version="1.0" encoding="UTF-8" standalone="no"?>
<svg xmlns="http://www.w3.org/2000/svg" version="1.1" xmlns:cc="http://creativecommons.org/ns#" xmlns:dc="http://purl.org/dc/elements/1.1/" height="22" viewBox="0 0 21.999999 21.999999" width="22" xmlns:rdf="http://www.w3.org/1999/02/22-rdf-syntax-ns#">
<defs>
<style id="current-color-scheme" type="text/css">.ColorScheme-Text {
        color:#ffffff;
      }</style>
</defs>
<g transform="translate(0 -1.03e3)">
<path style="color-rendering:auto;text-decoration-color:#000000;color:#000000;shape-rendering:auto;solid-color:#000000;text-decoration-line:none;text-rendering:auto;mix-blend-mode:normal;block-progression:tb;text-indent:0;image-rendering:auto;white-space:normal;text-decoration-style:solid;isolation:auto;text-transform:none" font-family="sans-serif" d="m11 2c-1.04 0-1.86 0.7-2.23 1.64-1-0.15-2.02 0.21-2.53 1.11-0.52 0.9-0.32 1.96 0.3 2.75-0.62 0.79-0.82 1.85-0.3 2.7 0.51 0.9 1.54 1.3 2.53 1.2 0.38 0.9 1.2 1.6 2.23 1.6 0.8 0 1.4-0.4 1.8-0.9 0.1 0.4 0.2 1 0.2 1.6-0.1 1.1-1.1 3.9-3 5.3h1 2s0.7-1.3 0.3-2.4c0.5-1 0.7-2.1 0.7-2.9 0-1-0.2-1.9-0.3-2.3 0.8 0 1.6-0.4 2.1-1.2 0.5-0.85 0.3-1.91-0.3-2.7 0.6-0.79 0.8-1.85 0.3-2.75-0.6-0.9-1.6-1.26-2.6-1.11-0.3-0.94-1.2-1.64-2.2-1.64zm2 17h3s1-2 0-3c0 0-1 2-3 3zm3 0h3s1-2 0-3c0 0-1 2-3 3zm-6 0s1-2 0-3c0 0-1 2-3 3h3zm-3 0s1-2 0-3c0 0-1 2-3 3h3zm-3 0s1-2 0-3c0 0-1 2-3 3h3zm7-16c0.7 0 1.3 0.5 1.5 1.2l0.1 0.56 0.5-0.18c0.7-0.23 1.4 0.05 1.8 0.67s0.2 1.4-0.3 1.87l-0.4 0.38 0.4 0.38c0.5 0.47 0.7 1.25 0.3 1.87-0.4 0.65-1.1 0.85-1.8 0.65l-0.5-0.2-0.1 0.6c-0.2 0.7-0.8 1.2-1.5 1.2s-1.33-0.5-1.47-1.2l-0.11-0.6-0.54 0.2c-0.68 0.2-1.42 0-1.78-0.65-0.35-0.62-0.23-1.4 0.31-1.87l0.43-0.38-0.43-0.38c-0.54-0.47-0.66-1.25-0.31-1.87 0.36-0.62 1.1-0.9 1.78-0.67l0.54 0.18 0.11-0.56c0.14-0.7 0.77-1.2 1.47-1.2zm0 1.93a2.57 2.57 0 0 0 -2.57 2.57 2.57 2.57 0 0 0 2.57 2.6 2.57 2.57 0 0 0 2.6 -2.6 2.57 2.57 0 0 0 -2.6 -2.57z" line-height="normal" transform="translate(0 1.03e3)" fill="#ffffff"/>
</g>
</svg>
