<?xml version="1.0" encoding="UTF-8" standalone="no"?>
<svg xmlns="http://www.w3.org/2000/svg" version="1.1" xmlns:cc="http://creativecommons.org/ns#" xmlns:dc="http://purl.org/dc/elements/1.1/" height="22" viewBox="0 0 21.999999 21.999999" width="22" xmlns:rdf="http://www.w3.org/1999/02/22-rdf-syntax-ns#">
<defs>
<style id="current-color-scheme" type="text/css">.ColorScheme-Text {
        color:#ff0000;
      }</style>
</defs>
  <g
     transform="translate(-0.27966098,-1028.0424)"
     id="g7">
    <g
       transform="matrix(0.422,0,0,0.422,228,597)"
       id="g9">
      <g
         transform="translate(-2.37,2.37)"
         id="g11">
        <path
           style="color:#000000;isolation:auto;mix-blend-mode:normal;solid-color:#000000;fill:#ff0000;color-rendering:auto;image-rendering:auto;shape-rendering:auto;text-rendering:auto"
           d="m 5,5 0,2 -1,0 0,2 -1,0 0,3 1,0 0,2 1,0 0,2 2,0 0,-4 8,0 0,4 2,0 0,-2 1,0 0,-2 1,0 0,-3 -1,0 0,-2 -1,0 0,-2 -2,0 0,4 L 7,9 7,5 5,5 Z m 2,5 8,0 0,1 -8,0 0,-1 z"
           transform="matrix(2.37,0,0,2.37,-537,1020)"
           id="path13"
            />
      </g>
    </g>
  </g>
</svg>
