<?xml version="1.0" encoding="UTF-8" standalone="no"?>
<svg xmlns="http://www.w3.org/2000/svg" version="1.1" xmlns:cc="http://creativecommons.org/ns#" xmlns:dc="http://purl.org/dc/elements/1.1/" height="22" viewBox="0 0 21.999999 21.999999" width="22" xmlns:rdf="http://www.w3.org/1999/02/22-rdf-syntax-ns#">
<defs>
<style id="current-color-scheme" type="text/css">.ColorScheme-Text {
        color:#008000;
      }</style>
</defs>
<g transform="translate(0 -1.03e3)">
<g transform="matrix(.422 0 0 .422 228 597)">
<g transform="translate(-2.37 2.37)">
<path style="text-rendering:auto;color-rendering:auto;color:#000000;isolation:auto;mix-blend-mode:normal;shape-rendering:auto;solid-color:#000000;image-rendering:auto" d="m3 2v17h16v-17h-0.707l-1 1-0.8 0.77-3.2 3.23h-4.59l-3.23-3.23-0.77-0.77-1-1zm1 1.71 4 4v5.59l-4 4zm14 0v13.6l-4-4v-5.59zm-9 4.29h4v5h-1v-4h-2v4h-1z" transform="matrix(2.37 0 0 2.37 -537 1.02e3)" fill="#008000"/>
</g>
</g>
</g>
</svg>
