<?xml version="1.0" encoding="UTF-8" standalone="no"?>
<svg xmlns="http://www.w3.org/2000/svg" version="1.1" xmlns:cc="http://creativecommons.org/ns#" xmlns:dc="http://purl.org/dc/elements/1.1/" height="22" viewBox="0 0 21.999999 21.999999" width="22" xmlns:rdf="http://www.w3.org/1999/02/22-rdf-syntax-ns#">
<defs>
<style id="current-color-scheme" type="text/css">.ColorScheme-Text {
        color:#ffff00;
      }</style>
</defs>
  <g
     transform="translate(-0.37288131,-1028.1356)"
     id="g7">
    <g
       transform="matrix(0.422,0,0,0.422,228,597)"
       id="g9">
      <g
         transform="translate(-2.37,2.37)"
         id="g11">
        <path
           style="color:#000000;isolation:auto;mix-blend-mode:normal;solid-color:#000000;fill:#ffff00;color-rendering:auto;image-rendering:auto;shape-rendering:auto;text-rendering:auto"
           d="m 3,2 0,17 16,0 0,-17 -0.707,0 -1,1 -0.8,0.77 L 13.293,7 8.703,7 5.473,3.77 4.703,3 l -1,-1 z m 1,1.71 4,4 0,5.59 -4,4 z m 14,0 0,13.6 -4,-4 0,-5.59 z M 9,8 l 4,0 0,5 -1,0 0,-4 -2,0 0,4 -1,0 z"
           transform="matrix(2.37,0,0,2.37,-537,1020)"
           id="path13"
            />
      </g>
    </g>
  </g>
</svg>
