<?xml version="1.0" encoding="UTF-8" standalone="no"?>
<svg
   xmlns:dc="http://purl.org/dc/elements/1.1/"
   xmlns:cc="http://creativecommons.org/ns#"
   xmlns:rdf="http://www.w3.org/1999/02/22-rdf-syntax-ns#"
   xmlns:svg="http://www.w3.org/2000/svg"
   xmlns="http://www.w3.org/2000/svg"
   xmlns:sodipodi="http://sodipodi.sourceforge.net/DTD/sodipodi-0.dtd"
   xmlns:inkscape="http://www.inkscape.org/namespaces/inkscape"
   version="1.1"
   height="22"
   viewBox="0 0 21.999999 21.999999"
   width="22"
   id="svg6"
   sodipodi:docname="kidsbedroom-black.svg"
   inkscape:version="0.92.3 (2405546, 2018-03-11)">
  <metadata
     id="metadata10">
    <rdf:RDF>
      <cc:Work
         rdf:about="">
        <dc:format>image/svg+xml</dc:format>
        <dc:type
           rdf:resource="http://purl.org/dc/dcmitype/StillImage" />
      </cc:Work>
    </rdf:RDF>
  </metadata>
  <sodipodi:namedview
     pagecolor="#ffffff"
     bordercolor="#666666"
     borderopacity="1"
     objecttolerance="10"
     gridtolerance="10"
     guidetolerance="10"
     inkscape:pageopacity="0"
     inkscape:pageshadow="2"
     inkscape:window-width="875"
     inkscape:window-height="480"
     id="namedview8"
     showgrid="false"
     inkscape:zoom="10.727273"
     inkscape:cx="11"
     inkscape:cy="11"
     inkscape:window-x="0"
     inkscape:window-y="0"
     inkscape:window-maximized="0"
     inkscape:current-layer="svg6" />
  <defs
     id="defs3">
    <style
       id="current-color-scheme"
       type="text/css">.ColorScheme-Text {
        color:#000080;
      }</style>
  </defs>
  <path style="color:#000080;fill:#000080" class="ColorScheme-Text"
     d="m 17.851108,9.925645 h -2.316524 c 0.409091,-0.6977529 0.642634,-1.5007473 0.642634,-2.3548794 0,-0.4078551 -0.05302,-0.8101665 -0.157779,-1.2009764 0.653721,-0.4109689 1.067503,-1.1176475 1.067503,-1.8811448 0,-1.2411535 -1.061108,-2.250985 -2.36528,-2.250985 -0.71129,0 -1.369701,0.2997692 -1.813476,0.8054315 -0.580517,-0.2129252 -1.192447,-0.3206046 -1.825414,-0.3206046 -0.632968,0 -1.2448998,0.1076794 -1.8254154,0.3206046 C 8.8135811,2.5374286 8.1551697,2.2376594 7.4438794,2.2376594 c -1.3041713,0 -2.3652778,1.0098315 -2.3652778,2.250985 0,0.7634973 0.4137819,1.4701759 1.067502,1.8811448 -0.1047594,0.3908099 -0.1577803,0.7931213 -0.1577803,1.2009764 0,0.8541321 0.2335427,1.6571265 0.6426354,2.3548794 H 4.3144351 c -1.304173,0 -2.3652794,1.009831 -2.3652794,2.250986 0,1.241153 1.0611064,2.250987 2.3652794,2.250987 h 1.1280555 v 1.180279 c -0.4513079,0.463453 -0.7277778,1.083152 -0.7277778,1.763318 0,1.432164 1.2242867,2.597293 2.7291666,2.597293 h 7.2777826 c 1.50488,0 2.729168,-1.165129 2.729168,-2.597293 0,-0.680166 -0.276469,-1.299865 -0.727778,-1.763318 v -1.180279 h 1.128056 c 1.304173,0 2.365279,-1.009834 2.365279,-2.250987 0,-1.241155 -1.061106,-2.250986 -2.365279,-2.250986 z M 6.1702689,4.4886444 c 0,-0.6683961 0.5712777,-1.2120677 1.2736105,-1.2120677 0.4774633,0 0.9110035,0.2512049 1.1313263,0.6555461 0.1370277,0.2516115 0.4609731,0.3521216 0.727635,0.22591 0.555927,-0.2631121 1.1547813,-0.3966292 1.7799313,-0.3966292 0.62515,0 1.224004,0.1335171 1.779928,0.3966292 0.266664,0.1263456 0.590609,0.025705 0.727636,-0.22591 0.220324,-0.4043412 0.653864,-0.6555461 1.131326,-0.6555461 0.702334,0 1.273612,0.5436716 1.273612,1.2120677 0,0.5009257 -0.330912,0.9566698 -0.823441,1.1338822 -0.278461,0.1003738 -0.421173,0.3945993 -0.320535,0.6613616 0.155505,0.4121839 0.234253,0.8452023 0.234253,1.2868774 0,1.9242954 -1.507155,3.5196014 -3.456947,3.7737844 V 10.177393 L 12.054612,9.974749 C 12.324259,9.846371 12.433568,9.534427 12.298672,9.2778082 12.163919,9.0211918 11.836135,8.9171628 11.566488,9.0455406 L 11.082772,9.2756442 10.599054,9.0454041 C 10.32955,8.9171628 10.001622,9.0211909 9.8668715,9.2776744 9.7319753,9.534291 9.8412862,9.846371 10.110932,9.974613 l 0.426006,0.20278 V 11.34455 C 8.5871454,11.090367 7.0799905,9.495061 7.0799905,7.5707656 c 0,-0.4416751 0.078748,-0.8746935 0.2342543,-1.2868774 C 7.4148836,6.0171259 7.2721688,5.7229004 6.9935675,5.6225266 6.5011796,5.4453142 6.1702689,4.9895701 6.1702689,4.4886444 Z M 5.8063795,17.371215 c 0,-0.859271 0.734601,-1.558374 1.6374999,-1.558374 0.9029005,0 1.6375016,0.699103 1.6375016,1.558374 0,0.85927 -0.7346011,1.558376 -1.6375016,1.558376 -0.9028989,0 -1.6374999,-0.699106 -1.6374999,-1.558376 z m 8.9152825,1.558376 c -0.902899,0 -1.6375,-0.699106 -1.6375,-1.558376 0,-0.859271 0.734601,-1.558374 1.6375,-1.558374 0.902901,0 1.637501,0.699103 1.637501,1.558374 0,0.85927 -0.7346,1.558376 -1.637501,1.558376 z m 3.129446,-5.54089 h -1.67389 c -0.301488,0 -0.545833,0.232538 -0.545833,0.519458 v 1.014703 c -0.284714,-0.09618 -0.590752,-0.148939 -0.909723,-0.148939 -1.504881,0 -2.729167,1.165129 -2.729167,2.597292 0,0.584255 0.203834,1.124006 0.547254,1.558376 H 9.6257937 c 0.3434207,-0.43437 0.5472543,-0.974121 0.5472543,-1.558376 0,-1.432163 -1.2242865,-2.597292 -2.7291686,-2.597292 -0.3189715,0 -0.6250074,0.05276 -0.9097216,0.148939 v -1.014703 c 0,-0.28692 -0.2443462,-0.519458 -0.5458345,-0.519458 H 4.3144351 c -0.7023344,0 -1.2736128,-0.543674 -1.2736128,-1.21207 0,-0.668398 0.5712784,-1.212069 1.2736128,-1.212069 h 3.1339937 c 0.9250735,0.897012 2.2124745,1.454482 3.6343432,1.454482 1.421868,0 2.709267,-0.55747 3.634342,-1.454482 h 3.133994 c 0.702335,0 1.273612,0.543671 1.273612,1.212069 0,0.668396 -0.571277,1.21207 -1.273612,1.21207 z m 0,0"
     id="path6"
     inkscape:connector-curvature="0"
      />
</svg>
