<?xml version="1.0" encoding="UTF-8" standalone="no"?>
<svg
   xmlns:dc="http://purl.org/dc/elements/1.1/"
   xmlns:cc="http://creativecommons.org/ns#"
   xmlns:rdf="http://www.w3.org/1999/02/22-rdf-syntax-ns#"
   xmlns:svg="http://www.w3.org/2000/svg"
   xmlns="http://www.w3.org/2000/svg"
   xmlns:sodipodi="http://sodipodi.sourceforge.net/DTD/sodipodi-0.dtd"
   xmlns:inkscape="http://www.inkscape.org/namespaces/inkscape"
   version="1.1"
   height="22"
   viewBox="0 0 21.999999 21.999999"
   width="22"
   id="svg7"
   sodipodi:docname="laundryroom-black.svg"
   inkscape:version="0.92.3 (2405546, 2018-03-11)">
  <metadata
     id="metadata11">
    <rdf:RDF>
      <cc:Work
         rdf:about="">
        <dc:format>image/svg+xml</dc:format>
        <dc:type
           rdf:resource="http://purl.org/dc/dcmitype/StillImage" />
      </cc:Work>
    </rdf:RDF>
  </metadata>
  <sodipodi:namedview
     pagecolor="#ffffff"
     bordercolor="#666666"
     borderopacity="1"
     objecttolerance="10"
     gridtolerance="10"
     guidetolerance="10"
     inkscape:pageopacity="0"
     inkscape:pageshadow="2"
     inkscape:window-width="875"
     inkscape:window-height="480"
     id="namedview9"
     showgrid="false"
     inkscape:zoom="10.727273"
     inkscape:cx="11"
     inkscape:cy="11"
     inkscape:window-x="0"
     inkscape:window-y="0"
     inkscape:window-maximized="0"
     inkscape:current-layer="svg7" />
  <defs
     id="defs3">
    <style
       id="current-color-scheme"
       type="text/css">.ColorScheme-Text {
        color:#ee82ee;
      }</style>
  </defs>
  <path style="color:#ee82ee;fill:#ee82ee" class="ColorScheme-Text"
     d="M 17.205565,2.4231089 H 4.9034563 c -1.0175107,0 -1.8453011,0.7566494 -1.8453011,1.6867112 V 18.008326 c 0,0.930063 0.8277904,1.686711 1.8453011,1.686711 H 17.205421 c 1.01751,0 1.845302,-0.756648 1.845302,-1.686711 V 4.1098201 C 19.050856,3.1797583 18.222931,2.4231089 17.205565,2.4231089 Z M 4.9034563,3.7724776 H 17.205421 c 0.20356,0 0.369061,0.1512777 0.369061,0.3373425 V 7.7305849 H 4.534396 V 4.1098201 c 0,-0.1860648 0.1655014,-0.3373425 0.3690603,-0.3373425 z M 17.205565,18.345669 H 4.9034563 c -0.2035589,0 -0.3690603,-0.151278 -0.3690603,-0.337343 V 9.0799529 h 13.040086 v 8.9283731 c 1.33e-4,0.186065 -0.165501,0.337343 -0.368917,0.337343 z M 11.05451,10.384387 c -2.0079167,0 -3.6414416,1.493137 -3.6414416,3.32849 0,1.83522 1.6335249,3.328358 3.6414416,3.328358 2.007776,0 3.641444,-1.493138 3.641444,-3.328358 0,-1.835353 -1.633668,-3.32849 -3.641444,-3.32849 z m 0,5.307477 c -1.1939669,0 -2.1652007,-0.887764 -2.1652007,-1.978987 0,-1.091355 0.9712338,-1.979119 2.1652007,-1.979119 1.193826,0 2.165204,0.887764 2.165204,1.979119 0,1.091223 -0.971378,1.978987 -2.165204,1.978987 z m 0.713469,-9.940267 c 0,-0.3726579 0.330425,-0.6746833 0.738122,-0.6746833 h 2.903322 c 0.407698,0 0.738122,0.3020254 0.738122,0.6746833 0,0.3726587 -0.330424,0.6746859 -0.738122,0.6746859 h -2.903322 c -0.407697,0 -0.738122,-0.3020272 -0.738122,-0.6746859 z m -5.8065009,0 c 0,-0.3726579 0.3304238,-0.6746833 0.7381213,-0.6746833 h 1.4515884 c 0.4076971,0 0.7381215,0.3020254 0.7381215,0.6746833 0,0.3726587 -0.3304244,0.6746859 -0.7381215,0.6746859 H 6.6995994 c -0.4076975,0 -0.7381213,-0.3020272 -0.7381213,-0.6746859 z m 0,0"
     id="path5"
     inkscape:connector-curvature="0"
      />
</svg>
