<?xml version="1.0" encoding="UTF-8" standalone="no"?>
<svg xmlns="http://www.w3.org/2000/svg" version="1.1" xmlns:cc="http://creativecommons.org/ns#" xmlns:dc="http://purl.org/dc/elements/1.1/" height="22" viewBox="0 0 21.999999 21.999999" width="22" xmlns:rdf="http://www.w3.org/1999/02/22-rdf-syntax-ns#">
<defs>
<style id="current-color-scheme" type="text/css">.ColorScheme-Text {
        color:#9400d3;
      }</style>
</defs>
  <path style="color:#9400d3;fill:#9400d3" class="ColorScheme-Text"
     d="M 18.272935,9.0523509 V 5.6723373 c 0,-1.878064 -1.66826,-3.4059553 -3.718866,-3.4059553 H 7.3394708 c -2.0506047,0 -3.718865,1.5278913 -3.718865,3.4059553 v 3.3800136 c -1.2609267,0.302412 -2.19413,1.3547991 -2.19413,2.6031631 v 4.019029 c 0,1.248361 0.9332033,2.300615 2.19413,2.60316 v 0.745983 c 0,0.376252 0.3329546,0.681192 0.7437732,0.681192 0.4108186,0 0.7437738,-0.30494 0.7437738,-0.681192 V 18.365247 H 16.785389 v 0.658439 c 0,0.376252 0.332955,0.681192 0.743774,0.681192 0.410818,0 0.743772,-0.30494 0.743772,-0.681192 V 18.27757 c 1.260928,-0.302412 2.194131,-1.354666 2.194131,-2.603162 V 11.65538 c 0,-1.24823 -0.933203,-2.3006171 -2.194131,-2.6030291 z M 7.3394708,3.6287645 h 7.2145982 c 1.230422,0 2.23132,0.9166814 2.23132,2.0435728 V 9.0523509 C 15.528239,9.3538307 14.597215,10.400764 14.59155,11.644205 H 7.3019927 C 7.2963302,10.400764 6.3653041,9.3538307 5.1081528,9.0523509 V 5.6723373 c 0,-1.1268914 1.0008969,-2.0435728 2.231318,-2.0435728 z M 7.3022815,13.006454 H 14.591258 V 17.00273 H 7.3022828 Z m -4.3882609,2.668089 v -4.019029 c 0,-0.732548 0.6506561,-1.328324 1.4503573,-1.328324 0.7997013,0 1.4503575,0.595776 1.4503575,1.328324 v 5.34735 h -1.450357 c -0.7997013,0 -1.4503573,-0.595909 -1.4503578,-1.328321 z m 16.0654974,0 c 0,0.732412 -0.650655,1.328321 -1.450356,1.328321 h -1.450357 v -5.34735 c 0,-0.732548 0.650655,-1.328324 1.450358,-1.328324 0.799701,0 1.450358,0.595776 1.450358,1.328324 z m 0,0" />
</svg>
