<?xml version="1.0" encoding="UTF-8" standalone="no"?>
<svg xmlns:xlink="http://www.w3.org/1999/xlink" xmlns="http://www.w3.org/2000/svg" version="1.1" xmlns:cc="http://creativecommons.org/ns#" xmlns:dc="http://purl.org/dc/elements/1.1/" height="22" viewBox="0 0 21.999999 21.999999" width="22" xmlns:rdf="http://www.w3.org/1999/02/22-rdf-syntax-ns#">
<defs>
<style id="current-color-scheme" type="text/css">.ColorScheme-Text {
        color:#000000;
      }</style>
<linearGradient id="b"> <stop stop-color="#ff13f4" offset="0"/> <stop stop-color="#005ce0" offset=".230"/> <stop stop-color="#1cfc00" offset=".439"/> <stop stop-color="#fcfc08" offset=".645"/> <stop stop-color="#fc0c0c" offset="1"/> </linearGradient> <linearGradient id="a" x1="11" gradientUnits="userSpaceOnUse" x2="11" xlink:href="#b" y1="19" y2="2.05"/> </defs>
    <g fill="currentColor" class="ColorScheme-Text">
        <path fill="url(#a)" d="m7 8v1h-1v1h1v1h1v-1h1v-1h-1v-1zm7.5 1.9a.6.6 0 0 0 -.6.6.6.6 0 0 0 .6.6.6.6 0 0 0 .6-.6.6.6 0 0 0 -.6-.6zm1-1a.6.6 0 0 0 -.6.6.6.6 0 0 0 .6.6.6.6 0 0 0 .6-.6.6.6 0 0 0 -.6-.6zm-2 0a.6.6 0 0 0 -.6.6.6.6 0 0 0 .6.6.6.6 0 0 0 .6-.6.6.6 0 0 0 -.6-.6zm1-1a.6.6 0 0 0 -.6.6.6.6 0 0 0 .6.6.6.6 0 0 0 .6-.6.6.6 0 0 0 -.6-.6z"/>
        <path fill="url(#a)" d="m6 6c-1.657 0-3 2.239-3 5v3.5a1.5 1.5 0 0 0 2.56 1.06l2.536-2.535a1.5 1.5 0 0 0 2.904-.525 1.5 1.5 0 0 0 2.904.525l2.535 2.536a1.5 1.5 0 0 0 2.561-1.061v-3.5c0-2.761-1.343-5-3-5zm0 1h10c1.105 0 2 1.79 2 4v3.5a.5.5 0 0 1 -.854.354l-2.853-2.854h-1.293v.5a.5.5 0 0 1 -1 0v-.5h-2v.5a.5.5 0 0 1 -1 0v-.5h-1.293l-2.853 2.854a.5.5 0 0 1 -.854-.354v-3.5c0-2.21.895-4 2-4z"/>
    </g>
</svg>
