<?xml version="1.0" encoding="UTF-8" standalone="no"?>
<svg xmlns="http://www.w3.org/2000/svg" version="1.1" xmlns:cc="http://creativecommons.org/ns#" xmlns:dc="http://purl.org/dc/elements/1.1/" height="22" viewBox="0 0 21.999999 21.999999" width="22" xmlns:rdf="http://www.w3.org/1999/02/22-rdf-syntax-ns#">
<defs>
<style id="current-color-scheme" type="text/css">.ColorScheme-Text {
        color:#4d4d4d;
      }</style>
</defs>
  <g transform="translate(-0.46610164,-1025.2458)">
    <path
       style="color:#000000;isolation:auto;mix-blend-mode:normal;solid-color:#000000;fill:#4d4d4d;color-rendering:auto;image-rendering:auto;shape-rendering:auto;text-rendering:auto"
       d="m 3.5,1030 c -0.551,0 -1,0.441 -1,0.992 -0.0025,0.36 0.188,0.693 0.5,0.873 l 0,11.1 1,0 0,-2 14,0 0,2 1,0 0,-11.1 c 0.304,-0.176 0.494,-0.498 0.5,-0.85 l 0,-0.016 c 4e-6,-0.551 -0.445,-0.998 -0.996,-1 -0.551,0 -1,0.441 -1,0.992 -0.0025,0.36 0.188,0.693 0.5,0.873 l 0,1.13 -14,0 0,-1.13 c 0.304,-0.176 0.494,-0.498 0.5,-0.85 l 0,-0.016 c 4.3e-6,-0.551 -0.445,-0.998 -0.996,-1 z m 0.496,4 1,0 0,4 -1,0 z m 2,0 1,0 0,4 -1,0 z m 2,0 1,0 0,4 -1,0 z m 2,0 2,0 0,4 -2,0 z m 3,0 1,0 0,4 -1,0 z m 2,0 1,0 0,4 -1,0 z m 2,0 1,0 0,4 -1,0 z"
       id="path9"
        />
  </g>
</svg>
