<?xml version="1.0" encoding="UTF-8" standalone="no"?>
<svg xmlns="http://www.w3.org/2000/svg" version="1.1" xmlns:cc="http://creativecommons.org/ns#" xmlns:dc="http://purl.org/dc/elements/1.1/" height="22" viewBox="0 0 21.999999 21.999999" width="22" xmlns:rdf="http://www.w3.org/1999/02/22-rdf-syntax-ns#">
<defs>
<style id="current-color-scheme" type="text/css">.ColorScheme-Text {
        color:#008000;
      }</style>
</defs>
  <g
     transform="translate(-0.18644066,-1029.0678)"
     id="g7">
    <g
       transform="matrix(0.422,0,0,0.422,228,597)"
       id="g9">
      <g
         transform="translate(-2.37,2.37)"
         id="g11">
        <path
           style="color:#000000;isolation:auto;mix-blend-mode:normal;solid-color:#000000;fill:#008000;color-rendering:auto;image-rendering:auto;shape-rendering:auto;text-rendering:auto"
           d="m -506,1030 0,2.37 0,2.37 -2.37,0 0,2.37 7.11,0 0,-2.37 -2.37,0 0,-2.37 4.74,0 0,11.8 -2.37,0 0,2.37 -28.4,0 0,2.37 2.37,0 0,14.2 11.8,0 0,-14.2 9.48,0 0,14.2 11.8,0 0,-14.2 2.37,0 0,-2.37 -2.37,0 0,-2.37 -2.37,0 0,-14.2 -2.37,0 -7.11,0 z m -19,19 7.11,0 0,4.74 -7.11,0 0,-4.74 z m 21.3,0 7.11,0 0,4.74 -7.11,0 0,-4.74 z m -21.3,7.11 7.11,0 0,4.74 -7.11,0 0,-4.74 z m 21.3,0 7.11,0 0,4.74 -7.11,0 0,-4.74 z"
           id="path13"
            />
      </g>
    </g>
  </g>
</svg>
