<?xml version="1.0" encoding="UTF-8" standalone="no"?>
<svg
   xmlns:dc="http://purl.org/dc/elements/1.1/"
   xmlns:cc="http://creativecommons.org/ns#"
   xmlns:rdf="http://www.w3.org/1999/02/22-rdf-syntax-ns#"
   xmlns:svg="http://www.w3.org/2000/svg"
   xmlns="http://www.w3.org/2000/svg"
   xmlns:sodipodi="http://sodipodi.sourceforge.net/DTD/sodipodi-0.dtd"
   xmlns:inkscape="http://www.inkscape.org/namespaces/inkscape"
   version="1.1"
   height="22"
   viewBox="0 0 21.999999 21.999999"
   width="22"
   id="svg7"
   sodipodi:docname="pool-black.svg"
   inkscape:version="0.92.3 (2405546, 2018-03-11)">
  <metadata
     id="metadata11">
    <rdf:RDF>
      <cc:Work
         rdf:about="">
        <dc:format>image/svg+xml</dc:format>
        <dc:type
           rdf:resource="http://purl.org/dc/dcmitype/StillImage" />
      </cc:Work>
    </rdf:RDF>
  </metadata>
  <sodipodi:namedview
     pagecolor="#ffffff"
     bordercolor="#666666"
     borderopacity="1"
     objecttolerance="10"
     gridtolerance="10"
     guidetolerance="10"
     inkscape:pageopacity="0"
     inkscape:pageshadow="2"
     inkscape:window-width="875"
     inkscape:window-height="480"
     id="namedview9"
     showgrid="false"
     inkscape:zoom="10.727273"
     inkscape:cx="11"
     inkscape:cy="11"
     inkscape:window-x="0"
     inkscape:window-y="0"
     inkscape:window-maximized="0"
     inkscape:current-layer="svg7" />
  <defs
     id="defs3">
    <style
       id="current-color-scheme"
       type="text/css">.ColorScheme-Text {
        color:#ffa500;
      }</style>
  </defs>
  <path style="color:#ffa500;fill:#ffa500" class="ColorScheme-Text"
     
     d="m 3.6354097,14.482577 c 1.1777546,-1.135269 3.0938666,-1.135269 4.2716218,-1.2e-4 1.229e-4,1.2e-4 1.229e-4,1.2e-4 1.931e-4,2.78e-4 1.6975796,1.636218 4.4455434,1.636717 6.1437704,1.21e-4 1.23e-4,-1.21e-4 1.92e-4,-2.79e-4 5.46e-4,-5.74e-4 1.177625,-1.13502 3.093739,-1.13502 4.271362,2.78e-4 0.25862,0.249166 0.677842,0.249166 0.936332,0 0.25849,-0.249289 0.25849,-0.653265 0,-0.902556 -1.354253,-1.30542 -3.38739,-1.566926 -5.013978,-0.78515 V 4.8154531 c 0,-0.3401566 0.287068,-0.6168697 0.639953,-0.6168697 1.184622,0.4087046 1.548519,-1.230721 0,-1.2762429 -1.082969,0 -1.964086,0.8493339 -1.964086,1.8931126 V 6.6873757 H 9.0373226 V 4.8154531 c 0,-0.3401566 0.2870668,-0.6168697 0.6398246,-0.6168697 1.1205398,0.2471666 1.2939158,-1.2359759 0,-1.2762423 -1.0828389,0 -1.963957,0.8493339 -1.963957,1.8931126 v 7.9794183 c -1.6265888,-0.781777 -3.6597257,-0.520146 -5.0139886,0.785141 -0.2586195,0.249289 -0.2586195,0.653265 0,0.902557 0.2584913,0.249165 0.6777128,0.249165 0.9362024,0 z m 5.401919,-0.731793 v -2.021996 h 3.8838203 v 2.021996 c -1.103141,0.895951 -2.746928,0.923247 -3.8838203,0 z M 12.921149,7.9637517 V 10.45242 H 9.0373287 V 7.9637517 Z m 6.33812,9.1660423 c 0.258492,0.249289 0.258492,0.653265 0,0.90243 -0.25849,0.249292 -0.677712,0.249292 -0.936333,0 -1.177623,-1.135143 -3.093993,-1.135143 -4.271619,0 -1.698096,1.636967 -4.4463164,1.636719 -6.1441564,0 -1.1777546,-1.135143 -3.0939963,-1.135143 -4.2717509,0 -0.2584896,0.249292 -0.6777108,0.249292 -0.9362026,0 -0.2584896,-0.249165 -0.2586193,-0.653265 0,-0.90243 1.6939582,-1.632854 4.4501975,-1.632854 6.1441558,0 1.1806001,1.138011 3.0914111,1.137885 4.2717511,0 1.69396,-1.632854 4.450197,-1.632854 6.144155,0 z"
     id="path5"
     inkscape:connector-curvature="0" />
</svg>
