<?xml version="1.0" encoding="UTF-8" standalone="no"?>
<svg
   xmlns:dc="http://purl.org/dc/elements/1.1/"
   xmlns:cc="http://creativecommons.org/ns#"
   xmlns:rdf="http://www.w3.org/1999/02/22-rdf-syntax-ns#"
   xmlns:svg="http://www.w3.org/2000/svg"
   xmlns="http://www.w3.org/2000/svg"
   xmlns:sodipodi="http://sodipodi.sourceforge.net/DTD/sodipodi-0.dtd"
   xmlns:inkscape="http://www.inkscape.org/namespaces/inkscape"
   version="1.1"
   height="22"
   viewBox="0 0 21.999999 21.999999"
   width="22"
   id="svg9"
   sodipodi:docname="porch-black.svg"
   inkscape:version="0.92.3 (2405546, 2018-03-11)">
  <metadata
     id="metadata13">
    <rdf:RDF>
      <cc:Work
         rdf:about="">
        <dc:format>image/svg+xml</dc:format>
        <dc:type
           rdf:resource="http://purl.org/dc/dcmitype/StillImage" />
      </cc:Work>
    </rdf:RDF>
  </metadata>
  <sodipodi:namedview
     pagecolor="#ffffff"
     bordercolor="#666666"
     borderopacity="1"
     objecttolerance="10"
     gridtolerance="10"
     guidetolerance="10"
     inkscape:pageopacity="0"
     inkscape:pageshadow="2"
     inkscape:window-width="875"
     inkscape:window-height="480"
     id="namedview11"
     showgrid="false"
     inkscape:zoom="10.727273"
     inkscape:cx="11"
     inkscape:cy="11"
     inkscape:window-x="0"
     inkscape:window-y="0"
     inkscape:window-maximized="0"
     inkscape:current-layer="svg9" />
  <defs
     id="defs3">
    <style
       id="current-color-scheme"
       type="text/css">.ColorScheme-Text {
        color:#4d4d4d;
      }</style>
  </defs>
  <g
     transform="matrix(0.03815289,0,0,0.03568593,1.3927972,1.7710621)"
     id="g6">
    <g
       id="g4">
      <path style="color:#4d4d4d;fill:#4d4d4d" class="ColorScheme-Text"
         d="m 482.377,370.811 c -14.708,-16.655 -40.224,-18.237 -56.877,-3.531 -6.954,6.141 -14.17,11.825 -21.596,17.082 l -28.676,-38.918 c 15.223,-7.379 25.746,-22.989 25.746,-41.011 0,-25.114 -20.432,-45.546 -45.546,-45.546 h -43.952 v -45.645 -0.574 h 38.192 c 6.287,0 12.195,2.401 16.669,6.486 67.17806,-3.69873 -5.17153,-18.19783 30.17109,-5.72339 C 387.73709,193.67961 371.28,182.668 349.668,182.668 H 173.345 L 126.027,11.013 C 124.969,7.178 122.432,3.92 118.973,1.955 115.514,-0.01 111.415,-0.517 107.58,0.538 67.131,11.688 43.295,53.668 54.445,94.116 l 55.104,199.902 c 5.145,18.665 17.074,34.135 32.661,44.045 L 108.096,384.36 C 100.67,379.103 93.454,373.419 86.5,367.278 78.432,360.152 68.07,356.593 57.329,357.263 c -10.742,0.667 -20.582,5.478 -27.707,13.546 -7.125,8.068 -10.681,18.428 -10.014,29.171 0.667,10.742 5.478,20.582 13.545,27.706 61.569,54.371 140.71,84.313 222.847,84.313 82.137,0 161.278,-29.942 222.845,-84.311 8.068,-7.125 12.879,-16.965 13.546,-27.707 0.666,-10.741 -2.89,-21.102 -10.014,-29.17 z M 281.475,212.668 v 46.219 h -87.12 l -12.74,-46.219 z M 83.366,86.144 C 78.007,66.703 85.992,46.678 101.758,35.862 l 81.172,253.025 h -43.567 z m 55.997,202.743 h 43.567 172.497 c 8.572,0 15.546,6.974 15.546,15.546 0,8.572 -6.974,15.546 -15.546,15.546 H 183.022 c -19.725,0 -37.265,-12.646 -43.659,-31.092 z m 32.007,60.178 c 3.814,0.593 7.705,0.914 11.652,0.914 h 158.282 l 37.057,50.291 c -76.06,41.328 -168.662,41.327 -244.721,0 z m 291.078,49.057 c -0.17,2.744 -1.399,5.258 -3.461,7.079 C 402.906,454.724 330.817,482 256,482 181.183,482 109.093,454.726 53.012,405.201 c -2.062,-1.82 -3.291,-4.334 -3.461,-7.078 -0.17,-2.745 0.738,-5.393 2.559,-7.454 1.821,-2.061 4.334,-3.291 7.079,-3.461 0.218,-0.014 0.436,-0.021 0.652,-0.021 2.509,0 4.903,0.903 6.801,2.579 53.982,47.671 121.658,71.503 189.357,71.497 67.683,-0.006 135.388,-23.838 189.357,-71.497 4.256,-3.759 10.774,-3.354 14.533,0.903 1.821,2.062 2.729,4.709 2.559,7.453 z"
         id="path5"
         inkscape:connector-curvature="0" />
    </g>
  </g>
</svg>
