<?xml version="1.0" encoding="UTF-8" standalone="no"?>
<svg xmlns:xlink="http://www.w3.org/1999/xlink" xmlns="http://www.w3.org/2000/svg" version="1.1" xmlns:cc="http://creativecommons.org/ns#" xmlns:dc="http://purl.org/dc/elements/1.1/" height="22" viewBox="0 0 21.999999 21.999999" width="22" xmlns:rdf="http://www.w3.org/1999/02/22-rdf-syntax-ns#">
<defs>
<style id="current-color-scheme" type="text/css">.ColorScheme-Text {
        color:#000000;
      }</style>
<linearGradient id="b"> <stop stop-color="#ff13f4" offset="0"/> <stop stop-color="#005ce0" offset=".230"/> <stop stop-color="#1cfc00" offset=".439"/> <stop stop-color="#fcfc08" offset=".645"/> <stop stop-color="#fc0c0c" offset="1"/> </linearGradient> <linearGradient id="a" x1="11" gradientUnits="userSpaceOnUse" x2="11" xlink:href="#b" y1="19" y2="2.05"/> </defs>
 <path fill="url(#a)" 
     style="fill:currentColor;fill-opacity:1;stroke:none" 
     d="M 4 3 L 4 5 L 3 5 L 3 6 L 3 19 L 4 19 L 19 19 L 19 18 L 19 6 L 19 5 L 18 5 L 18 3 L 5 3 L 4 3 z M 5 4 L 17 4 L 17 5 L 5 5 L 5 4 z M 4 6 L 18 6 L 18 18 L 4 18 L 4 6 z M 5 7 L 5 11 L 9 11 L 9 7 L 5 7 z M 11 7 L 11 8 L 17 8 L 17 7 L 11 7 z M 11 10 L 11 11 L 17 11 L 17 10 L 11 10 z M 5 12 L 5 17 L 17 17 L 17 12 L 5 12 z " />
</svg>
