<?xml version="1.0" encoding="UTF-8" standalone="no"?>
<svg xmlns:xlink="http://www.w3.org/1999/xlink" xmlns="http://www.w3.org/2000/svg" version="1.1" xmlns:cc="http://creativecommons.org/ns#" xmlns:dc="http://purl.org/dc/elements/1.1/" height="22" viewBox="0 0 21.999999 21.999999" width="22" xmlns:rdf="http://www.w3.org/1999/02/22-rdf-syntax-ns#">
<defs>
<style id="current-color-scheme" type="text/css">.ColorScheme-Text {
        color:#000000;
      }</style>
<linearGradient id="b"> <stop stop-color="#ff13f4" offset="0"/> <stop stop-color="#005ce0" offset=".230"/> <stop stop-color="#1cfc00" offset=".439"/> <stop stop-color="#fcfc08" offset=".645"/> <stop stop-color="#fc0c0c" offset="1"/> </linearGradient> <linearGradient id="a" x1="11" gradientUnits="userSpaceOnUse" x2="11" xlink:href="#b" y1="19" y2="2.05"/> </defs>
 <path fill="url(#a)" style="fill:currentColor;fill-opacity:1;stroke:none" 
     d="M 7.4648438,2.9667969 2.0175781,5.8808594 5.6386719,8.9511719 2.3652344,12.214844 7.828125,15.130859 11,12 l 3.123047,2.669922 5.275391,-3.009766 c -0.0047,0.0035 -3.419922,-2.9667966 -3.419922,-2.9667966 L 18.996094,6.0351562 14.5,3 10.992188,5.9921875 Z M 7.2675781,4.0664062 10.0625,6.5058594 6.578125,8.3925781 3.71875,6.0429688 Z M 14.460937,4.0917969 17.587891,6.1816406 15.083984,8.2089844 11.894531,6.484375 Z M 11,7 14.486328,9 11,11 7.5136719,9 Z M 6.4257812,9.5253906 10.078125,11.501953 7.6289062,13.890625 4.015625,11.894531 Z m 9.1093748,0.021484 2.310547,1.984375 -3.673828,1.941406 -2.236328,-1.978515 z M 16,13.636719 15,14.222656 15,16.705078 11,19 7,16.705078 7,14.742188 6,14.207031 6,17.294922 11,20 16,17.294922 Z"/> 
</svg>
