<?xml version="1.0" encoding="UTF-8" standalone="no"?>
<svg xmlns="http://www.w3.org/2000/svg" version="1.1" xmlns:cc="http://creativecommons.org/ns#" xmlns:dc="http://purl.org/dc/elements/1.1/" height="22" viewBox="0 0 21.999999 21.999999" width="22" xmlns:rdf="http://www.w3.org/1999/02/22-rdf-syntax-ns#">
<defs>
<style id="current-color-scheme" type="text/css">.ColorScheme-Text {
        color:#ff0000;
      }</style>
</defs>
  <path style="color:#ff0000;fill:#ff0000" class="ColorScheme-Text"
     

     d="M 19.905525,2.8572357 H 14.787706 V 1.710605 H 7.6702059 V 2.8572357 H 2.5523866 V 15.063298 h 3.0842506 v 2.219283 h 1.0167843 v 3.365914 h 3.0503561 v -1.146631 h 3.0503574 v 1.146631 h 3.050355 v -3.365914 h 1.016787 v -2.219283 h 3.084248 z M 8.6869933,2.8202476 H 13.770922 V 3.9668774 H 8.6869933 Z M 7.6702059,3.9668774 V 5.0765182 H 14.787706 V 3.9668774 H 18.88874 V 9.8489899 L 15.802771,6.5129848 12.245743,10.394856 9.7037776,7.6207497 5.9343893,11.73437 H 3.569171 V 3.9668774 Z M 18.88874,11.73437 H 13.473166 L 12.964772,11.179551 15.806213,8.0786218 18.88874,11.410871 Z M 7.6702059,19.538852 v -2.256271 h 1.0167874 v 2.256271 z m 2.0335717,-1.146629 v -1.109642 h 3.0503574 v 1.109642 z m 5.0839284,1.146629 h -1.016784 v -2.256271 h 1.016784 z M 15.80449,16.172938 H 6.6534215 v -1.10964 H 15.80449 Z M 3.569171,13.953655 V 12.844014 H 6.3556688 L 9.7037776,9.1901405 13.051889,12.844014 h 5.836851 v 1.109641 z m 0,0"
     id="path2" />
</svg>
