<?xml version="1.0" encoding="UTF-8" standalone="no"?>
<svg xmlns="http://www.w3.org/2000/svg" version="1.1" xmlns:cc="http://creativecommons.org/ns#" xmlns:dc="http://purl.org/dc/elements/1.1/" height="22" viewBox="0 0 21.999999 21.999999" width="22" xmlns:rdf="http://www.w3.org/1999/02/22-rdf-syntax-ns#" xmlns:xlink="http://www.w3.org/1999/xlink">
<defs>
<linearGradient id="b">
<stop stop-color="#ff13f4" offset="0"/>
<stop stop-color="#005ce0" offset=".230"/>
<stop stop-color="#1cfc00" offset=".439"/>
<stop stop-color="#fcfc08" offset=".645"/>
<stop stop-color="#fc0c0c" offset="1"/>
</linearGradient>
<style id="current-color-scheme" type="text/css">.ColorScheme-Text {
        color:#4d4d4d;
      }</style>
<linearGradient id="a" x1="11" gradientUnits="userSpaceOnUse" x2="11" xlink:href="#b" y1="19" y2="2.05"/>
</defs>
<g transform="translate(0 -1.03e3)">
<path style="text-rendering:auto;color-rendering:auto;color:#000000;isolation:auto;mix-blend-mode:normal;shape-rendering:auto;solid-color:#000000;image-rendering:auto" d="m11 3a8 4 0 0 0 -8 3.98l8 0.02 8-0.03a8 4 0 0 0 -8 -3.97zm0 4h-1v5h2v-5h-1zm0-3a6 2 0 0 1 6 1.99l-6 0.01-6-0.01a6 2 0 0 1 6 -1.99zm-9 6l1 5-1 4h1l1-3h2v3h1v-3-1h-3l-1-5h-1zm17 0l-1 5h-3v1 3h1v-3h2l1 3h1l-1-4 1-5h-1zm-14 3v1h5v4h-1v1h4v-1h-1v-4h5v-1h-12z" transform="translate(0 1.03e3)" fill="url(#a)"/>
</g>
</svg>
