<?xml version="1.0" encoding="UTF-8" standalone="no"?>
<svg xmlns="http://www.w3.org/2000/svg" version="1.1" xmlns:cc="http://creativecommons.org/ns#" xmlns:dc="http://purl.org/dc/elements/1.1/" height="22" viewBox="0 0 21.999999 21.999999" width="22" xmlns:rdf="http://www.w3.org/1999/02/22-rdf-syntax-ns#">
<defs>
<style id="current-color-scheme" type="text/css">.ColorScheme-Text {
        color:#ffffff;
      }</style>
</defs>
<g transform="translate(0 -1.03e3)">
<g transform="matrix(.422 0 0 .422 228 597)">
<g transform="matrix(1.36 0 0 1.36 183 -375)">
<path style="text-rendering:auto;color-rendering:auto;color:#000000;isolation:auto;mix-blend-mode:normal;shape-rendering:auto;solid-color:#000000;image-rendering:auto" d="m6 4v8h1.42c-0.93 1.7-0.51 3.9 0.99 5.2 0.52 0.4 1.12 0.7 1.79 0.8h-1.2v1h4v-1h-1.2c0.7-0.1 1.3-0.4 1.8-0.8 1.5-1.3 1.9-3.5 1-5.2h1.4v-8h-10zm1 1h8v6h-8v-6zm6 1v1h1v-1h-1zm-4.53 6.9h5.03c0.7 1.1 0.4 2.7-0.7 3.5-1 0.8-2.6 0.8-3.62 0-1.06-0.8-1.36-2.4-0.71-3.5z" transform="matrix(1.75 0 0 1.75 -532 1.03e3)" fill="#ffffff"/>
</g>
</g>
</g>
</svg>
